# xmcd
#
# Track frame offsets:
#	150
#	17165
#	33735
#	45655
#	57180
#	68002
#	79575
#	94067
#	111512
#	125510
#	139712
#	156714
#	173309
#	185229
#	196759
#	207569
#	219144
#	233647
#	251097
#	265092
#
# Disc length: 3721 seconds
#
# Revision: 0
# Processed by: cddbd v1.5.2PL0 Copyright (c) Steve Scherf et al.
# Submitted via: EasyCDDAExtractor 15.2.0.1
#
DISCID=1e0e8714
DTITLE=Gerson Ruffino - Lembrancas (Jair Pires)
DYEAR=2011
DGENRE=Gospel
TTITLE0=Jesus Nazareno
TTITLE1=Bate Coracao
TTITLE2=O Homem Sem Deus
TTITLE3=Ungido De Deus
TTITLE4=Igreja Velha
TTITLE5=O Homem Rico
TTITLE6=Canta Meu Povo
TTITLE7=O Pecado Doi
TTITLE8=Alma Cansada
TTITLE9=Consertando O Altar
TTITLE10=Jesus Nazareno (Pb)
TTITLE11=Bate Coracao (Pb)
TTITLE12=O Homem Sem Deus (Pb)
TTITLE13=Ungido De Deus (Pb)
TTITLE14=Igreja Velha (Pb)
TTITLE15=O Homem Rico (Pb)
TTITLE16=Canta Meu Povo (Pb)
TTITLE17=O Pecado Doi (Pb)
TTITLE18=Alma Cansada (Pb)
TTITLE19=Consertando O Altar (Pb)
EXTD=
EXTT0=
EXTT1=
EXTT2=
EXTT3=
EXTT4=
EXTT5=
EXTT6=
EXTT7=
EXTT8=
EXTT9=
EXTT10=
EXTT11=
EXTT12=
EXTT13=
EXTT14=
EXTT15=
EXTT16=
EXTT17=
EXTT18=
EXTT19=
PLAYORDER=
